<svg xmlns="http://www.w3.org/2000/svg" width="512" height="512" viewBox="0 0 512 512">
  <rect width="512" height="512" rx="96" fill="#0d0d0f"/>
  <rect x="196" y="241" width="120" height="30" rx="15" fill="#3d9bff"/>
  <rect x="196" y="241" width="120" height="15" rx="15" fill="#6fb6ff"/>
  <rect x="244" y="241" width="24" height="30" rx="6" fill="#9aa0ab"/>
  <rect x="170" y="162" width="34" height="188" rx="16" fill="#3d9bff"/><rect x="170" y="162" width="13" height="188" rx="16" fill="#6fb6ff"/><rect x="170" y="286.08" width="34" height="38" rx="8" fill="#9aa0ab"/>
  <rect x="308" y="162" width="34" height="188" rx="16" fill="#3d9bff"/><rect x="308" y="162" width="13" height="188" rx="16" fill="#6fb6ff"/><rect x="308" y="286.08" width="34" height="38" rx="8" fill="#9aa0ab"/>
  <rect x="132" y="189" width="36" height="134" rx="16" fill="#3d9bff"/><rect x="132" y="189" width="14" height="134" rx="16" fill="#6fb6ff"/><rect x="132" y="277.44" width="36" height="27" rx="8" fill="#9aa0ab"/>
  <rect x="344" y="189" width="36" height="134" rx="16" fill="#3d9bff"/><rect x="344" y="189" width="14" height="134" rx="16" fill="#6fb6ff"/><rect x="344" y="277.44" width="36" height="27" rx="8" fill="#9aa0ab"/>
  <rect x="110" y="213" width="20" height="86" rx="10" fill="#3d9bff"/><rect x="110" y="213" width="8" height="86" rx="10" fill="#6fb6ff"/><rect x="110" y="269.76" width="20" height="17" rx="6.666666666666667" fill="#9aa0ab"/>
  <rect x="382" y="213" width="20" height="86" rx="10" fill="#3d9bff"/><rect x="382" y="213" width="8" height="86" rx="10" fill="#6fb6ff"/><rect x="382" y="269.76" width="20" height="17" rx="6.666666666666667" fill="#9aa0ab"/>
</svg>